<?xml version="1.0" encoding="utf-8"?>
<!-- Generator: Adobe Illustrator 25.2.1, SVG Export Plug-In . SVG Version: 6.00 Build 0)  -->
<svg version="1.1" xmlns="http://www.w3.org/2000/svg" xmlns:xlink="http://www.w3.org/1999/xlink" x="0px" y="0px"
	 viewBox="0 0 1853.54 1861.26" style="enable-background:new 0 0 1853.54 1861.26;" xml:space="preserve">
<style type="text/css">
	.st0{display:none;}
	.st1{display:inline;fill:#020000;}
	.st2{opacity:0.1;}
	.st3{fill:none;}
	.st4{fill:#FFFFFF;}
	.st5{opacity:0.2;}
	.st6{fill:none;stroke:#FFFFFF;}
	.st7{opacity:0.297;}
	.st8{opacity:0.4;}
	.st9{opacity:0.5;}
	.st10{fill:#A7BDD3;}
</style>
<g id="레이어_2" class="st0">
	<rect x="-61.54" y="-12.46" class="st1" width="2228" height="2080"/>
</g>
<g id="레이어_1">
	<g id="패스_1774" transform="translate(350 351)" class="st2">
		<path class="st3" d="M576.77,448.63c71.8,0,130,58.65,130,131s-58.2,131-130,131s-130-58.65-130-131S504.97,448.63,576.77,448.63z
			"/>
		<path class="st4" d="M576.77,449.63c-8.75,0-17.5,0.89-26,2.64c-8.28,1.71-16.43,4.26-24.21,7.57
			c-7.64,3.26-15.02,7.29-21.91,11.98c-6.83,4.65-13.25,9.99-19.09,15.87c-5.84,5.88-11.14,12.36-15.75,19.24
			c-4.66,6.95-8.66,14.38-11.89,22.08c-3.29,7.85-5.82,16.06-7.52,24.4c-1.74,8.56-2.62,17.38-2.62,26.2
			c0,8.82,0.88,17.64,2.62,26.2c1.69,8.35,4.22,16.56,7.52,24.4c3.23,7.7,7.24,15.13,11.89,22.08c4.62,6.88,9.92,13.36,15.75,19.24
			c5.84,5.88,12.26,11.22,19.09,15.87c6.9,4.69,14.27,8.73,21.91,11.98c7.78,3.32,15.93,5.87,24.21,7.57
			c8.5,1.75,17.24,2.64,26,2.64s17.5-0.89,26-2.64c8.28-1.71,16.43-4.26,24.21-7.57c7.64-3.26,15.02-7.29,21.91-11.98
			c6.83-4.65,13.25-9.99,19.09-15.87c5.84-5.88,11.14-12.36,15.75-19.24c4.66-6.95,8.66-14.38,11.89-22.08
			c3.29-7.85,5.82-16.06,7.52-24.4c1.74-8.56,2.62-17.38,2.62-26.2c0-8.82-0.88-17.64-2.62-26.2c-1.69-8.35-4.22-16.56-7.52-24.4
			c-3.23-7.7-7.24-15.13-11.89-22.08c-4.62-6.88-9.92-13.36-15.75-19.24c-5.84-5.88-12.26-11.22-19.09-15.87
			c-6.9-4.69-14.27-8.73-21.91-11.98c-7.78-3.32-15.93-5.87-24.21-7.57C594.27,450.52,585.52,449.63,576.77,449.63 M576.77,448.63
			c71.8,0,130,58.65,130,131s-58.2,131-130,131s-130-58.65-130-131S504.97,448.63,576.77,448.63z"/>
	</g>
	<g id="타원_8" transform="translate(300 301)" class="st5">
		<ellipse class="st3" cx="626.77" cy="629.63" rx="180" ry="181"/>
		<ellipse class="st6" cx="626.77" cy="629.63" rx="179.5" ry="180.5"/>
	</g>
	<g id="타원_12" transform="translate(250 251)" class="st5">
		<ellipse class="st3" cx="676.77" cy="679.63" rx="230" ry="231"/>
		<ellipse class="st6" cx="676.77" cy="679.63" rx="229.5" ry="230.5"/>
	</g>
	<g id="타원_14" transform="translate(200 201)" class="st7">
		<ellipse class="st3" cx="726.77" cy="729.63" rx="280" ry="281"/>
		<ellipse class="st6" cx="726.77" cy="729.63" rx="279.5" ry="280.5"/>
	</g>
	<g id="타원_17" transform="translate(150 151)" class="st7">
		<ellipse class="st3" cx="776.77" cy="779.63" rx="330" ry="331"/>
		<ellipse class="st6" cx="776.77" cy="779.63" rx="329.5" ry="330.5"/>
	</g>
	<g id="타원_20" transform="translate(100 100)" class="st8">
		<ellipse class="st3" cx="826.77" cy="830.63" rx="380" ry="382"/>
		<ellipse class="st6" cx="826.77" cy="830.63" rx="379.5" ry="381.5"/>
	</g>
	<g id="타원_21" transform="translate(50 50)" class="st8">
		<ellipse class="st3" cx="876.77" cy="880.63" rx="430" ry="432"/>
		<ellipse class="st6" cx="876.77" cy="880.63" rx="429.5" ry="431.5"/>
	</g>
	<g id="타원_22_6_" class="st9">
		<ellipse class="st3" cx="926.77" cy="930.63" rx="926.77" ry="930.63"/>
		<ellipse class="st6" cx="926.77" cy="930.63" rx="925.8" ry="929.67"/>
	</g>
	<g id="타원_22_5_" class="st9">
		<ellipse class="st3" cx="926.77" cy="930.63" rx="831.7" ry="835.16"/>
		<ellipse class="st6" cx="926.77" cy="930.63" rx="830.83" ry="834.29"/>
	</g>
	<g id="타원_22_4_" class="st9">
		<ellipse class="st3" cx="926.77" cy="930.63" rx="746.37" ry="749.48"/>
		<ellipse class="st6" cx="926.77" cy="930.63" rx="745.6" ry="748.71"/>
	</g>
	<g id="타원_22_3_" class="st9">
		<ellipse class="st3" cx="926.77" cy="930.63" rx="669.8" ry="672.6"/>
		<ellipse class="st6" cx="926.77" cy="930.63" rx="669.11" ry="671.9"/>
	</g>
	<g id="타원_22_2_" class="st9">
		<ellipse class="st3" cx="926.77" cy="930.63" rx="601.09" ry="603.6"/>
		<ellipse class="st6" cx="926.77" cy="930.63" rx="600.47" ry="602.97"/>
	</g>
	<g id="타원_22_1_" class="st9">
		<ellipse class="st6" cx="926.77" cy="930.63" rx="540.34" ry="542.6"/>
	</g>
	<g id="타원_22" class="st9">
		<ellipse class="st3" cx="926.77" cy="930.63" rx="480" ry="482"/>
		<ellipse class="st6" cx="926.77" cy="930.63" rx="479.5" ry="481.5"/>
	</g>
	<g transform="matrix(1, 0, 0, 1, 0, 0)">
		<path id="패스_1775-2" class="st10" d="M1072.57,546.01c-0.1,0-0.2,0-0.3,0l0,0c-0.1,0-0.2,0-0.3,0
			c-8.83,0.19-14.62,8.95-11.2,16.74l9.7,22.1c0.47,1,1.67,1.42,2.66,0.95c0.42-0.2,0.75-0.53,0.95-0.95l9.7-22.1
			C1087.19,554.95,1081.4,546.2,1072.57,546.01z M1072.27,566.61c-4.46-0.19-7.92-3.97-7.73-8.43c0.19-4.46,3.97-7.92,8.43-7.73
			c4.32,0.19,7.73,3.75,7.73,8.07C1080.6,563.09,1076.83,566.71,1072.27,566.61L1072.27,566.61z"/>
	</g>
	<g transform="matrix(1, 0, 0, 1, 0, 0)">
		<path id="패스_1776-2" class="st10" d="M786.57,1204c-0.1,0-0.2,0-0.3,0l0,0c-0.1,0-0.2,0-0.3,0
			c-8.83,0.19-14.62,8.95-11.2,16.74l9.7,22.1c0.47,1,1.67,1.42,2.66,0.95c0.42-0.2,0.75-0.53,0.95-0.95l9.7-22.1
			C801.19,1212.94,795.4,1204.19,786.57,1204z M786.27,1224.6c-4.46-0.19-7.92-3.97-7.73-8.43c0.19-4.46,3.97-7.92,8.43-7.73
			c4.32,0.19,7.73,3.75,7.73,8.07C794.6,1221.08,790.83,1224.7,786.27,1224.6L786.27,1224.6z"/>
	</g>
	<g transform="matrix(1, 0, 0, 1, 0, 0)">
		<path id="패스_1777-2" class="st10" d="M829.57,640c-0.1,0-0.2,0-0.3,0l0,0c-0.1,0-0.2,0-0.3,0
			c-8.83,0.19-14.62,8.95-11.2,16.74l9.7,22.1c0.47,1,1.67,1.42,2.66,0.95c0.42-0.2,0.75-0.53,0.95-0.95l9.7-22.1
			C844.19,648.94,838.4,640.19,829.57,640z M829.27,660.6c-4.46-0.19-7.92-3.97-7.73-8.43c0.19-4.46,3.97-7.92,8.43-7.73
			c4.32,0.19,7.73,3.75,7.73,8.07C837.6,657.08,833.83,660.7,829.27,660.6L829.27,660.6z"/>
	</g>
	<g transform="matrix(1, 0, 0, 1, 0, 0)">
		<path id="패스_1777-2_1_" class="st10" d="M608.57,821.04c-0.1,0-0.2,0-0.3,0l0,0c-0.1,0-0.2,0-0.3,0
			c-8.83,0.19-14.62,8.95-11.2,16.74l9.7,22.1c0.47,1,1.67,1.42,2.66,0.95c0.42-0.2,0.75-0.53,0.95-0.95l9.7-22.1
			C623.19,829.98,617.4,821.23,608.57,821.04z M608.27,841.64c-4.46-0.19-7.92-3.97-7.73-8.43c0.19-4.46,3.97-7.92,8.43-7.73
			c4.32,0.19,7.73,3.75,7.73,8.07C616.6,838.12,612.83,841.74,608.27,841.64L608.27,841.64z"/>
	</g>
	<g transform="matrix(1, 0, 0, 1, 0, 0)">
		<path id="패스_1780-2" class="st10" d="M774.07,499c-0.1,0-0.2,0-0.3,0l0,0c-0.1,0-0.2,0-0.3,0
			c-8.83,0.19-14.62,8.95-11.2,16.74l9.7,22.1c0.47,1,1.67,1.42,2.66,0.95c0.42-0.2,0.75-0.53,0.95-0.95l9.7-22.1
			C788.69,507.94,782.9,499.19,774.07,499z M773.77,519.6c-4.46-0.19-7.92-3.97-7.73-8.43c0.19-4.46,3.97-7.92,8.43-7.73
			c4.32,0.19,7.73,3.75,7.73,8.07C782.1,516.08,778.33,519.7,773.77,519.6L773.77,519.6z"/>
	</g>
	<g transform="matrix(1, 0, 0, 1, 0, 0)">
		<path id="패스_1778-2" class="st10" d="M1080.07,1079c-0.1,0-0.2,0-0.3,0l0,0c-0.1,0-0.2,0-0.3,0
			c-8.83,0.19-14.62,8.95-11.2,16.74l9.7,22.1c0.47,1,1.67,1.42,2.66,0.95c0.42-0.2,0.75-0.53,0.95-0.95l9.7-22.1
			C1094.69,1087.94,1088.9,1079.19,1080.07,1079z M1079.77,1099.6c-4.46-0.19-7.92-3.97-7.73-8.43c0.19-4.46,3.97-7.92,8.43-7.73
			c4.32,0.19,7.73,3.75,7.73,8.07C1088.1,1096.08,1084.33,1099.7,1079.77,1099.6L1079.77,1099.6z"/>
	</g>
	<g transform="matrix(1, 0, 0, 1, 0, 0)">
		<path id="패스_1779-2" class="st10" d="M1047.57,1322c-0.1,0-0.2,0-0.3,0l0,0c-0.1,0-0.2,0-0.3,0
			c-8.83,0.19-14.62,8.95-11.2,16.74l9.7,22.1c0.47,1,1.67,1.42,2.66,0.95c0.42-0.2,0.75-0.53,0.95-0.95l9.7-22.1
			C1062.19,1330.94,1056.4,1322.19,1047.57,1322z M1047.27,1342.6c-4.46-0.19-7.92-3.97-7.73-8.43c0.19-4.46,3.97-7.92,8.43-7.73
			c4.32,0.19,7.73,3.75,7.73,8.07C1055.6,1339.08,1051.83,1342.7,1047.27,1342.6L1047.27,1342.6z"/>
	</g>
	<g transform="matrix(1, 0, 0, 1, 0, 0)">
		<path id="패스_1777-2_2_" class="st10" d="M1280.82,1143.35c-0.1,0-0.2,0-0.3,0l0,0c-0.1,0-0.2,0-0.3,0
			c-8.83,0.19-14.62,8.95-11.2,16.74l9.7,22.1c0.47,1,1.67,1.42,2.66,0.95c0.42-0.2,0.75-0.53,0.95-0.95l9.7-22.1
			C1295.43,1152.3,1289.64,1143.54,1280.82,1143.35z M1280.52,1163.95c-4.46-0.19-7.92-3.97-7.73-8.43
			c0.19-4.46,3.97-7.92,8.43-7.73c4.32,0.19,7.73,3.75,7.73,8.07C1288.85,1160.43,1285.07,1164.05,1280.52,1163.95L1280.52,1163.95z
			"/>
	</g>
	<g transform="matrix(1, 0, 0, 1, 0, 0)">
		<path id="패스_1777-2_3_" class="st10" d="M1351.82,847.04c-0.1,0-0.2,0-0.3,0l0,0c-0.1,0-0.2,0-0.3,0
			c-8.83,0.19-14.62,8.95-11.2,16.74l9.7,22.1c0.47,1,1.67,1.42,2.66,0.95c0.42-0.2,0.75-0.53,0.95-0.95l9.7-22.1
			C1366.43,855.98,1360.64,847.23,1351.82,847.04z M1351.52,867.64c-4.46-0.19-7.92-3.97-7.73-8.43c0.19-4.46,3.97-7.92,8.43-7.73
			c4.32,0.19,7.73,3.75,7.73,8.07C1359.85,864.12,1356.07,867.74,1351.52,867.64L1351.52,867.64z"/>
	</g>
	<g transform="matrix(1, 0, 0, 1, 0, 0)">
		<path id="패스_1777-2_4_" class="st10" d="M1481.82,672.04c-0.1,0-0.2,0-0.3,0l0,0c-0.1,0-0.2,0-0.3,0
			c-8.83,0.19-14.62,8.95-11.2,16.74l9.7,22.1c0.47,1,1.67,1.42,2.66,0.95c0.42-0.2,0.75-0.53,0.95-0.95l9.7-22.1
			C1496.43,680.98,1490.64,672.23,1481.82,672.04z M1481.52,692.64c-4.46-0.19-7.92-3.97-7.73-8.43c0.19-4.46,3.97-7.92,8.43-7.73
			c4.32,0.19,7.73,3.75,7.73,8.07C1489.85,689.12,1486.07,692.74,1481.52,692.64L1481.52,692.64z"/>
	</g>
	<g transform="matrix(1, 0, 0, 1, 0, 0)">
		<path id="패스_1777-2_5_" class="st10" d="M395.82,1032.04c-0.1,0-0.2,0-0.3,0l0,0c-0.1,0-0.2,0-0.3,0
			c-8.83,0.19-14.62,8.95-11.2,16.74l9.7,22.1c0.47,1,1.67,1.42,2.66,0.95c0.42-0.2,0.75-0.53,0.95-0.95l9.7-22.1
			C410.43,1040.98,404.64,1032.23,395.82,1032.04z M395.52,1052.64c-4.46-0.19-7.92-3.97-7.73-8.43c0.19-4.46,3.97-7.92,8.43-7.73
			c4.32,0.19,7.73,3.75,7.73,8.07C403.85,1049.12,400.07,1052.74,395.52,1052.64L395.52,1052.64z"/>
	</g>
</g>
</svg>
