<?xml version="1.0" encoding="utf-8"?>
<!-- Generator: Adobe Illustrator 25.2.1, SVG Export Plug-In . SVG Version: 6.00 Build 0)  -->
<svg version="1.1" id="레이어_1" xmlns="http://www.w3.org/2000/svg" xmlns:xlink="http://www.w3.org/1999/xlink" x="0px"
	 y="0px" viewBox="0 0 1920 1002" style="enable-background:new 0 0 1920 1002;" xml:space="preserve">
<style type="text/css">
	.st0{fill:#161A29;}
	.st1{opacity:0.6;}
	.st2{clip-path:url(#SVGID_2_);}
	.st3{opacity:0.2;fill:#004D8A;enable-background:new    ;}
	.st4{fill:none;}
	.st5{opacity:0.5;}
	.st6{fill:none;stroke:#004D8A;stroke-width:3;stroke-miterlimit:10;}
	.st7{opacity:0.3;fill:#004D8A;enable-background:new    ;}
	.st8{fill:#FFFFFF;}
</style>
<g id="그룹_1441" transform="translate(10.005 0)">
	<path id="패스_1785" class="st0" d="M-10.01,0h1920v1002h-1920V0z"/>
	<g id="그룹_1440" class="st1">
		<g>
			<defs>
				<rect id="SVGID_1_" x="-10.01" width="1920" height="1002"/>
			</defs>
			<clipPath id="SVGID_2_">
				<use xlink:href="#SVGID_1_"  style="overflow:visible;"/>
			</clipPath>
			<g id="그룹_1439" class="st2">
				<rect id="사각형_441" x="136.83" y="981.79" class="st3" width="63.04" height="20.21"/>
				<rect id="사각형_442" x="267.1" y="967.81" class="st3" width="63.04" height="34.19"/>
				<rect id="사각형_443" x="397.38" y="927.84" class="st3" width="63.04" height="74.17"/>
				<rect id="사각형_444" x="527.65" y="863.58" class="st3" width="63.04" height="138.42"/>
				<rect id="사각형_445" x="657.92" y="811.88" class="st3" width="63.04" height="190.12"/>
				<rect id="사각형_446" x="788.2" y="763.94" class="st3" width="63.04" height="238.06"/>
				<rect id="사각형_447" x="918.47" y="719.81" class="st3" width="63.04" height="282.19"/>
				<rect id="사각형_448" x="1048.75" y="640.2" class="st3" width="63.04" height="361.8"/>
				<rect id="사각형_449" x="1179.02" y="583.07" class="st3" width="63.04" height="418.93"/>
				<rect id="사각형_450" x="1309.3" y="522.12" class="st3" width="63.04" height="479.88"/>
				<rect id="사각형_451" x="1439.57" y="467.7" class="st3" width="63.04" height="534.3"/>
				<rect id="사각형_452" x="1569.84" y="378" class="st3" width="63.04" height="624"/>
				<rect id="사각형_453" x="1700.12" y="308.74" class="st3" width="63.04" height="693.26"/>
				<rect id="사각형_454" x="-10.01" class="st4" width="1920" height="1002"/>
				<g id="그룹_1438" transform="translate(-130.071 137.814)" class="st5">
					<path id="패스_1783" class="st6" d="M-10.01,830c96.77-2.3,212.69-70.51,308.43-83.97c82.25-11.57,183.6-23.72,260.55-54.8
						c64.41-26.02,86.27-61.47,143.73-98.44c41.59-26.76,117-12.07,163.37-26.9c45.79-14.64,79.65-48.69,116.17-76.52
						c16.85-12.84,35.03-24.22,54.96-32.53c15.44-6.44,32.29-7.69,48.76-10.36c48.79-7.92,79.87-41.49,112.2-73.12
						c28.02-27.41,57.38-60.09,95.91-74.94c85.57-32.98,159.83-23.05,239.2-67.76c55.79-31.42,100.91-72.43,151.71-109.71
						c48.43-35.53,109.08-54.88,167.26-71.72c73.86-21.26,149.02-37.69,225.02-49.19"/>
					<path id="패스_1784" class="st7" d="M-10.01,829.95c96.77-2.29,212.69-70.51,308.43-83.97
						c82.25-11.57,183.6-23.72,260.55-54.8c64.41-26.02,86.28-61.47,143.73-98.44c41.59-26.76,117-12.07,163.37-26.9
						c45.79-14.64,79.65-48.69,116.17-76.52c16.85-12.84,35.03-24.22,54.96-32.53c15.44-6.44,32.29-7.69,48.76-10.36
						c48.79-7.92,79.87-41.49,112.2-73.12c28.02-27.41,57.38-60.09,95.91-74.94c85.57-32.98,159.83-23.05,239.2-67.76
						c55.79-31.42,100.91-72.43,151.71-109.71c48.43-35.53,109.08-54.88,167.26-71.72c73.86-21.26,149.02-37.69,225.02-49.19v911.46
						H-10.01V829.95z"/>
					<ellipse id="타원_21" class="st8" cx="1019.63" cy="467.11" rx="9" ry="8.35"/>
					<ellipse id="타원_22" class="st8" cx="1861.71" cy="48.3" rx="9" ry="8.35"/>
					<ellipse id="타원_23" class="st8" cx="1470.89" cy="258.08" rx="9" ry="8.35"/>
					<ellipse id="타원_24" class="st8" cx="1238.04" cy="335.17" rx="9" ry="8.35"/>
					<ellipse id="타원_25" class="st8" cx="298.42" cy="745.16" rx="9" ry="8.35"/>
					<ellipse id="타원_26" class="st8" cx="558.97" cy="692.71" rx="9" ry="8.35"/>
					<ellipse id="타원_27" class="st8" cx="920.08" cy="540.96" rx="9" ry="8.35"/>
					<ellipse id="타원_28" class="st8" cx="736.34" cy="581.99" rx="9" ry="8.35"/>
				</g>
			</g>
		</g>
	</g>
</g>
</svg>
