<?xml version="1.0" encoding="utf-8"?>
<!-- Generator: Adobe Illustrator 25.2.1, SVG Export Plug-In . SVG Version: 6.00 Build 0)  -->
<svg version="1.1" id="레이어_1" xmlns="http://www.w3.org/2000/svg" xmlns:xlink="http://www.w3.org/1999/xlink" x="0px"
	 y="0px" viewBox="0 0 43.67 60.96" style="enable-background:new 0 0 43.67 60.96;" xml:space="preserve">
<style type="text/css">
	.st0{fill:#F5F5F5;}
	.st1{fill:#6C8FB7;}
	.st2{fill:#004D8A;}
	.st3{fill:#FFFFFF;}
</style>
<g id="그룹_165" transform="translate(-51.334 -1577.064)">
	<g id="그룹_141" transform="translate(8.074 260.777)">
		<g id="그룹_139" transform="translate(47.76 1318.786)">
			<g transform="matrix(1, 0, 0, 1, -4.5, -2.5)">
				<path id="패스_237-2" class="st0" d="M21.84,17.29c12.06,0,21.84,9.78,21.84,21.84S33.9,60.96,21.84,60.96S0,51.18,0,39.12
					C0,27.06,9.78,17.29,21.84,17.29C21.84,17.29,21.84,17.29,21.84,17.29z"/>
			</g>
			<g transform="matrix(1, 0, 0, 1, -4.5, -2.5)">
				<circle id="타원_20-2" class="st1" cx="21.83" cy="39.13" r="12.39"/>
			</g>
			<g id="그룹_134" transform="translate(9.042)">
				<g transform="matrix(1, 0, 0, 1, -13.54, -2.5)">
					<path id="패스_228-2" class="st2" d="M10.48,19.21c-4.29-8.5,1.52-18.81,11.03-19.2C21.7,0.01,21.9,0,22.09,0l0,0
						c0.2,0,0.39,0,0.58,0.01c9.52,0.39,15.32,10.69,11.03,19.2l-9.73,19.3c-0.52,1.04-1.79,1.46-2.84,0.94
						c-0.41-0.2-0.73-0.53-0.94-0.94L10.48,19.21z"/>
				</g>
				<ellipse id="타원_23" class="st3" cx="8.55" cy="10.4" rx="5.93" ry="5.93"/>
			</g>
		</g>
	</g>
</g>
</svg>
