<?xml version="1.0" encoding="utf-8"?>
<!-- Generator: Adobe Illustrator 25.2.1, SVG Export Plug-In . SVG Version: 6.00 Build 0)  -->
<svg version="1.1" id="레이어_1" xmlns="http://www.w3.org/2000/svg" xmlns:xlink="http://www.w3.org/1999/xlink" x="0px"
	 y="0px" viewBox="0 0 60 60" style="enable-background:new 0 0 60 60;" xml:space="preserve">
<style type="text/css">
	.st0{fill:#FFFFFF;}
	.st1{opacity:0.89;fill:url(#패스_194_1_);enable-background:new    ;}
	.st2{clip-path:url(#SVGID_2_);}
	.st3{fill:#FFFFFF;stroke:#231815;stroke-width:0.25;stroke-miterlimit:10;}
	.st4{opacity:0.55;}
	.st5{opacity:0.91;fill:url(#타원_2_1_);enable-background:new    ;}
</style>
<g transform="matrix(1, 0, 0, 1, 0, 0)">
	<circle id="타원_24-2" class="st0" cx="30" cy="30" r="30"/>
</g>
<g id="그룹_144" transform="translate(17.974 22.771)">
	<g id="그룹_143" transform="translate(0)">
		
			<linearGradient id="패스_194_1_" gradientUnits="userSpaceOnUse" x1="-475.0727" y1="293.7672" x2="-474.0727" y2="293.7672" gradientTransform="matrix(33.0222 0 0 -19.0779 15683.6855 5611.5703)">
			<stop  offset="0" style="stop-color:#C5D8DE"/>
			<stop  offset="0.071" style="stop-color:#B1C4D1"/>
			<stop  offset="0.287" style="stop-color:#788DAD"/>
			<stop  offset="0.392" style="stop-color:#6378A0"/>
			<stop  offset="0.511" style="stop-color:#4E6A97"/>
			<stop  offset="0.705" style="stop-color:#31588B"/>
			<stop  offset="0.875" style="stop-color:#204C83"/>
			<stop  offset="1" style="stop-color:#1A4981"/>
		</linearGradient>
		<path id="패스_194" class="st1" d="M19.21-2.43c-1.19,0.01-2.37,0.23-3.47,0.67c-2.16,0.86-4.55,0.91-6.74,0.13L8.76-1.7
			C3.87-3.63-1.65-1.23-3.57,3.65C-5.5,8.53-3.1,14.05,1.78,15.98c2.4,0.95,5.08,0.88,7.43-0.19l-0.45,0.19
			c2.28-0.93,4.83-0.93,7.12-0.02l0,0c4.91,1.87,10.4-0.59,12.27-5.49s-0.59-10.4-5.49-12.27C21.56-2.23,20.39-2.44,19.21-2.43
			L19.21-2.43z"/>
		<g id="그룹_68">
			<path id="패스_196" class="st0" d="M19.14-2.5c-1.2,0.01-2.38,0.24-3.49,0.68c-2.17,0.87-4.59,0.92-6.79,0.13L8.62-1.76
				C3.7-3.7-1.86-1.29-3.8,3.63C-5.73,8.54-3.32,14.1,1.6,16.04c2.42,0.95,5.12,0.88,7.48-0.19l-0.45,0.19
				c2.3-0.93,4.86-0.94,7.17-0.02l0,0c4.94,1.89,10.47-0.59,12.36-5.53c1.89-4.94-0.59-10.47-5.53-12.36
				C21.51-2.29,20.33-2.51,19.14-2.5L19.14-2.5z"/>
			<g>
				<defs>
					<path id="SVGID_1_" d="M19.14-2.5c-1.2,0.01-2.38,0.24-3.49,0.68c-2.17,0.87-4.59,0.92-6.79,0.13L8.62-1.76
						C3.7-3.7-1.86-1.29-3.8,3.63C-5.73,8.54-3.32,14.1,1.6,16.04c2.42,0.95,5.12,0.88,7.48-0.19l-0.45,0.19
						c2.3-0.93,4.86-0.94,7.17-0.02l0,0c4.94,1.89,10.47-0.59,12.36-5.53c1.89-4.94-0.59-10.47-5.53-12.36
						C21.51-2.29,20.33-2.51,19.14-2.5L19.14-2.5z"/>
				</defs>
				<clipPath id="SVGID_2_">
					<use xlink:href="#SVGID_1_"  style="overflow:visible;"/>
				</clipPath>
				<g id="그룹_67" class="st2">
					<path id="패스_197" class="st3" d="M15.8,16.01"/>
					<path id="패스_198" class="st3" d="M8.63,16.04"/>
					<g id="그룹_66" transform="translate(8.599 -4.198)" class="st4">
						
							<image style="overflow:visible;opacity:0.69;enable-background:new    ;" width="404" height="403" id="사각형_87" xlink:href="C4600D7E.png"  transform="matrix(0.0683 0 0 0.0683 -4.4997 -2.5)">
						</image>
						<g id="그룹_65" transform="translate(5.853 4.241)">
							
								<ellipse id="타원_1" transform="matrix(1 -5.270869e-03 5.270869e-03 1 -0.0369 0.0267)" class="st0" cx="5.05" cy="7.02" rx="9.5" ry="9.47"/>
						</g>
					</g>
				</g>
			</g>
		</g>
		
			<linearGradient id="타원_2_1_" gradientUnits="userSpaceOnUse" x1="-466.3919" y1="293.4652" x2="-465.3919" y2="293.4652" gradientTransform="matrix(18.8617 -0.0994 -0.0992 -18.8137 8835.9844 5481.9634)">
			<stop  offset="0" style="stop-color:#6C8FB7"/>
			<stop  offset="0.066" style="stop-color:#5D86B0"/>
			<stop  offset="0.241" style="stop-color:#3B71A2"/>
			<stop  offset="0.421" style="stop-color:#216197"/>
			<stop  offset="0.604" style="stop-color:#004D8A"/>
			<stop  offset="0.794" style="stop-color:#12547C"/>
			<stop  offset="1" style="stop-color:#12547C"/>
		</linearGradient>
		<path id="타원_2" class="st5" d="M19.3-2.3c5.21-0.03,9.45,4.16,9.48,9.36c0.03,5.2-4.17,9.43-9.38,9.46s-9.45-4.16-9.48-9.36
			C9.89,1.96,14.09-2.28,19.3-2.3z"/>
	</g>
</g>
</svg>
