<?xml version="1.0" encoding="utf-8"?>
<!-- Generator: Adobe Illustrator 25.2.1, SVG Export Plug-In . SVG Version: 6.00 Build 0)  -->
<svg version="1.1" id="레이어_1" xmlns="http://www.w3.org/2000/svg" xmlns:xlink="http://www.w3.org/1999/xlink" x="0px"
	 y="0px" viewBox="0 0 46.88 57.32" style="enable-background:new 0 0 46.88 57.32;" xml:space="preserve">
<style type="text/css">
	.st0{fill:#F5F5F5;}
	.st1{fill:#004D8A;}
	.st2{fill:#6C8FB7;}
	.st3{fill:#FFFFFF;}
</style>
<g>
	<path class="st0" d="M44.29,5.99h-8.34v4.54c0,0.49-0.4,0.89-0.89,0.89H11.82c-0.49,0-0.89-0.4-0.89-0.89V5.99H2.6
		C1.16,5.99,0,7.15,0,8.59v46.14c0,1.43,1.16,2.6,2.6,2.6h41.69c1.43,0,2.6-1.16,2.6-2.6V8.59C46.88,7.15,45.72,5.99,44.29,5.99z
		 M16.35,45.85c0,0.55-0.45,1-1,1H7.2c-0.55,0-1-0.45-1-1v-8.16c0-0.55,0.45-1,1-1h8.16c0.55,0,1,0.45,1,1V45.85z M16.35,28.92
		c0,0.55-0.45,1-1,1H7.2c-0.55,0-1-0.45-1-1v-8.16c0-0.55,0.45-1,1-1h8.16c0.55,0,1,0.45,1,1V28.92z M39.82,44.94H20.01
		c-0.48,0-0.88-0.39-0.88-0.88c0-0.48,0.39-0.88,0.88-0.88h19.81c0.48,0,0.88,0.39,0.88,0.88C40.7,44.55,40.3,44.94,39.82,44.94z
		 M39.82,40.35H20.01c-0.48,0-0.88-0.39-0.88-0.88s0.39-0.88,0.88-0.88h19.81c0.48,0,0.88,0.39,0.88,0.88S40.3,40.35,39.82,40.35z
		 M39.82,27.8H20.01c-0.48,0-0.88-0.39-0.88-0.88c0-0.48,0.39-0.88,0.88-0.88h19.81c0.48,0,0.88,0.39,0.88,0.88
		C40.7,27.41,40.3,27.8,39.82,27.8z M39.82,23.21H20.01c-0.48,0-0.88-0.39-0.88-0.88c0-0.48,0.39-0.88,0.88-0.88h19.81
		c0.48,0,0.88,0.39,0.88,0.88C40.7,22.82,40.3,23.21,39.82,23.21z"/>
	<path class="st1" d="M15.35,19.76H7.2c-0.55,0-1,0.45-1,1v8.16c0,0.55,0.45,1,1,1h8.16c0.55,0,1-0.45,1-1v-8.16
		C16.35,20.2,15.91,19.76,15.35,19.76z M14.38,23.5l-3.21,3.1c-0.11,0.1-0.25,0.16-0.4,0.16c-0.13,0-0.26-0.05-0.37-0.13L8.2,24.78
		c-0.25-0.2-0.29-0.56-0.1-0.81c0.2-0.25,0.56-0.29,0.81-0.1c0.01,0.01,0.02,0.01,0.03,0.02l1.81,1.51l2.84-2.74
		c0.23-0.22,0.59-0.21,0.81,0.01C14.62,22.91,14.61,23.27,14.38,23.5z"/>
	<path class="st1" d="M15.35,36.69H7.2c-0.55,0-1,0.45-1,1v8.16c0,0.55,0.45,1,1,1h8.16c0.55,0,1-0.45,1-1v-8.16
		C16.35,37.14,15.91,36.69,15.35,36.69z M14.38,40.63l-3.21,3.1c-0.11,0.1-0.25,0.16-0.4,0.16c-0.13,0-0.26-0.05-0.37-0.13
		L8.2,41.92c-0.25-0.2-0.29-0.56-0.1-0.81c0.2-0.25,0.56-0.29,0.81-0.1c0.01,0.01,0.02,0.01,0.03,0.02l1.81,1.51l2.84-2.74
		c0.23-0.22,0.59-0.21,0.81,0.01C14.62,40.05,14.61,40.41,14.38,40.63z"/>
	<path class="st2" d="M39.82,21.46H20.01c-0.48,0-0.88,0.39-0.88,0.88c0,0.48,0.39,0.88,0.88,0.88h19.81c0.48,0,0.88-0.39,0.88-0.88
		C40.7,21.85,40.3,21.46,39.82,21.46z"/>
	<path class="st2" d="M39.82,26.05H20.01c-0.48,0-0.88,0.39-0.88,0.88c0,0.48,0.39,0.88,0.88,0.88h19.81c0.48,0,0.88-0.39,0.88-0.88
		C40.7,26.44,40.3,26.05,39.82,26.05z"/>
	<path class="st2" d="M39.82,38.59H20.01c-0.48,0-0.88,0.39-0.88,0.88s0.39,0.88,0.88,0.88h19.81c0.48,0,0.88-0.39,0.88-0.88
		S40.3,38.59,39.82,38.59z"/>
	<path class="st2" d="M39.82,43.19H20.01c-0.48,0-0.88,0.39-0.88,0.88c0,0.48,0.39,0.88,0.88,0.88h19.81c0.48,0,0.88-0.39,0.88-0.88
		C40.7,43.58,40.3,43.19,39.82,43.19z"/>
	<path class="st2" d="M11.82,11.42h23.23c0.49,0,0.89-0.4,0.89-0.89V5.99V4.18c0-0.49-0.4-0.89-0.89-0.89h-7.53
		c-0.4,0.01-0.76-0.27-0.85-0.66c-0.36-1.78-2.1-2.92-3.88-2.56c-1.29,0.26-2.3,1.27-2.56,2.56c-0.09,0.39-0.45,0.67-0.85,0.66
		h-7.55c-0.49,0-0.89,0.4-0.89,0.89v1.81v4.54C10.94,11.02,11.33,11.42,11.82,11.42z"/>
	<path class="st3" d="M13.58,22.67l-2.84,2.74L8.94,23.9c-0.01-0.01-0.02-0.01-0.03-0.02c-0.25-0.2-0.61-0.15-0.81,0.1
		c-0.2,0.25-0.15,0.61,0.1,0.81l2.21,1.84c0.1,0.09,0.23,0.13,0.37,0.13c0.15,0,0.29-0.06,0.4-0.16l3.21-3.1
		c0.23-0.22,0.23-0.59,0.01-0.81C14.18,22.45,13.81,22.45,13.58,22.67z"/>
	<path class="st3" d="M13.58,39.81l-2.84,2.74l-1.81-1.51c-0.01-0.01-0.02-0.01-0.03-0.02c-0.25-0.2-0.61-0.15-0.81,0.1
		c-0.2,0.25-0.15,0.61,0.1,0.81l2.21,1.84c0.1,0.09,0.23,0.13,0.37,0.13c0.15,0,0.29-0.06,0.4-0.16l3.21-3.1
		c0.23-0.22,0.23-0.59,0.01-0.81C14.18,39.59,13.81,39.58,13.58,39.81z"/>
</g>
</svg>
