<?xml version="1.0" encoding="utf-8"?>
<!-- Generator: Adobe Illustrator 25.2.1, SVG Export Plug-In . SVG Version: 6.00 Build 0)  -->
<svg version="1.1" id="레이어_1" xmlns="http://www.w3.org/2000/svg" xmlns:xlink="http://www.w3.org/1999/xlink" x="0px"
	 y="0px" viewBox="0 0 60 60" style="enable-background:new 0 0 60 60;" xml:space="preserve">
<style type="text/css">
	.st0{fill:#FFFFFF;}
	.st1{opacity:0.89;fill:url(#패스_194_2_);enable-background:new    ;}
	.st2{clip-path:url(#SVGID_2_);}
	.st3{fill:#FFFFFF;stroke:#231815;stroke-width:0.25;stroke-miterlimit:10;}
	.st4{opacity:0.55;}
	.st5{opacity:0.91;fill:url(#타원_2_2_);enable-background:new    ;}
</style>
<g transform="matrix(1, 0, 0, 1, 0, 0)">
	<circle id="타원_24-2" class="st0" cx="30" cy="30" r="30"/>
</g>
<g id="그룹_143_1_" transform="translate(0)">
	
		<linearGradient id="패스_194_2_" gradientUnits="userSpaceOnUse" x1="-457.5059" y1="316.3297" x2="-456.3769" y2="316.3297" gradientTransform="matrix(33.0222 0 0 -19.0779 15119.3174 6064.9111)">
		<stop  offset="0" style="stop-color:#C5D8DE"/>
		<stop  offset="0.071" style="stop-color:#B1C4D1"/>
		<stop  offset="0.287" style="stop-color:#788DAD"/>
		<stop  offset="0.392" style="stop-color:#6378A0"/>
		<stop  offset="0.511" style="stop-color:#4E6A97"/>
		<stop  offset="0.705" style="stop-color:#31588B"/>
		<stop  offset="0.875" style="stop-color:#204C83"/>
		<stop  offset="1" style="stop-color:#1A4981"/>
	</linearGradient>
	<path id="패스_194_1_" class="st1" d="M37.96,19.23c-1.34,0.01-2.67,0.26-3.92,0.76c-2.43,0.97-5.14,1.03-7.61,0.15l-0.27-0.08
		c-5.51-2.18-11.75,0.53-13.92,6.04c-2.18,5.51,0.53,11.75,6.04,13.92c2.71,1.07,5.74,0.99,8.39-0.22l-0.5,0.22
		c2.58-1.04,5.45-1.05,8.04-0.03l0,0c5.54,2.11,11.74-0.66,13.85-6.2s-0.66-11.74-6.2-13.86C40.61,19.46,39.29,19.22,37.96,19.23
		L37.96,19.23z"/>
	<g id="그룹_68_1_">
		<g>
			<defs>
				<path id="SVGID_1_" d="M37.88,19.16c-1.35,0.01-2.69,0.27-3.95,0.77c-2.45,0.98-5.18,1.03-7.66,0.15L26,19.99
					c-5.55-2.19-11.83,0.53-14.02,6.09c-2.19,5.55,0.53,11.83,6.09,14.02c2.73,1.08,5.78,1,8.45-0.22l-0.51,0.22
					c2.59-1.05,5.49-1.06,8.09-0.03l0,0c5.58,2.13,11.82-0.67,13.95-6.24c2.13-5.58-0.66-11.82-6.24-13.95
					C40.56,19.39,39.23,19.15,37.88,19.16L37.88,19.16z"/>
			</defs>
			<clipPath id="SVGID_2_">
				<use xlink:href="#SVGID_1_"  style="overflow:visible;"/>
			</clipPath>
			<g id="그룹_67_1_" class="st2">
				<path id="패스_197_1_" class="st3" d="M34.11,40.06"/>
				<path id="패스_198_1_" class="st3" d="M26.01,40.09"/>
				<g id="그룹_66_1_" transform="translate(8.599 -4.198)" class="st4">
					
						<image style="overflow:visible;opacity:0.69;enable-background:new    ;" width="404" height="403" id="사각형_87_1_" xlink:href="30F08A0E.png"  transform="matrix(0.0771 0 0 0.0771 12.3012 18.6152)">
					</image>
					<g id="그룹_65_1_" transform="translate(5.853 4.241)">
						
							<ellipse id="타원_1_1_" transform="matrix(1 -5.270869e-03 5.270869e-03 1 -0.1573 0.126)" class="st0" cx="23.83" cy="29.91" rx="10.72" ry="10.69"/>
					</g>
				</g>
			</g>
		</g>
	</g>
	
		<linearGradient id="타원_2_2_" gradientUnits="userSpaceOnUse" x1="-448.7715" y1="316.0272" x2="-447.6425" y2="316.0272" gradientTransform="matrix(18.8617 -0.0994 -0.0992 -18.8137 8523.4229 5931.0918)">
		<stop  offset="0" style="stop-color:#6C8FB7"/>
		<stop  offset="0.066" style="stop-color:#5D86B0"/>
		<stop  offset="0.241" style="stop-color:#3B71A2"/>
		<stop  offset="0.421" style="stop-color:#216197"/>
		<stop  offset="0.604" style="stop-color:#004D8A"/>
		<stop  offset="0.794" style="stop-color:#12547C"/>
		<stop  offset="1" style="stop-color:#12547C"/>
	</linearGradient>
	<path id="타원_2_1_" class="st5" d="M38.06,19.38c5.88-0.03,10.67,4.7,10.7,10.56c0.03,5.87-4.71,10.65-10.59,10.68
		c-5.88,0.03-10.67-4.7-10.7-10.56C27.44,24.19,32.18,19.41,38.06,19.38z"/>
</g>
</svg>
