<?xml version="1.0" encoding="utf-8"?>
<!-- Generator: Adobe Illustrator 25.2.1, SVG Export Plug-In . SVG Version: 6.00 Build 0)  -->
<svg version="1.1" id="레이어_1" xmlns="http://www.w3.org/2000/svg" xmlns:xlink="http://www.w3.org/1999/xlink" x="0px"
	 y="0px" viewBox="0 0 140.01 21.42" style="enable-background:new 0 0 140.01 21.42;" xml:space="preserve">
<style type="text/css">
	.st0{fill:#FFFFFF;}
	.st1{fill:#E2E2E2;}
	.st2{fill:#D1D1D1;}
</style>
<g id="그룹_1447" transform="translate(-127.989 -387.929)">
	<g id="그룹_1446" transform="translate(127.989 387.929)">
		<path id="패스_1803" class="st0" d="M15.46,7.32c0,4.79-3.75,5.84-8.5,5.84H4.55c-0.4-0.01-0.73,0.3-0.75,0.7v6.47H0V2.05
			c0.01-0.4,0.35-0.71,0.75-0.7h6.16C11.33,1.35,15.46,2.03,15.46,7.32z M3.8,9.73c0.01,0.4,0.35,0.71,0.75,0.7h2.53
			c2.66,0,4.72-0.37,4.72-3.09c0-3.09-2.41-3.33-4.89-3.33H4.55c-0.4-0.01-0.73,0.3-0.75,0.7L3.8,9.73z"/>
		<path id="패스_1804" class="st0" d="M18.55,20.33V1.35h3.8v18.98L18.55,20.33z"/>
		<path id="패스_1805" class="st0" d="M59.42,1.35h4.16l-7.55,7.84c-0.13,0.13-0.14,0.34-0.03,0.48l7.82,10.66h-4.13l-5.92-8.14
			c-0.12-0.17-0.36-0.21-0.53-0.09c-0.02,0.01-0.04,0.03-0.05,0.05l-2.06,2.17c-0.12,0.13-0.19,0.3-0.19,0.47v5.54h-3.74V1.35h3.74
			v8.57c0.01,0.1,0.09,0.18,0.2,0.18c0.05,0,0.09-0.02,0.13-0.06L59.42,1.35z"/>
		<path id="패스_1806" class="st0" d="M135.61,1.35h4.16l-7.55,7.84c-0.13,0.13-0.14,0.34-0.03,0.48l7.82,10.66h-4.13l-5.92-8.14
			c-0.12-0.17-0.36-0.21-0.53-0.09c-0.02,0.01-0.04,0.03-0.05,0.05l-2.05,2.17c-0.12,0.13-0.19,0.3-0.19,0.47v5.54h-3.74V1.35h3.74
			v8.57c0.01,0.1,0.09,0.18,0.2,0.18c0.05,0,0.09-0.02,0.13-0.06L135.61,1.35z"/>
		<path id="패스_1807" class="st0" d="M35.05,17.83c-3.46,0-6.27-3.12-6.27-6.97s2.81-6.97,6.27-6.97
			c2.53,0.07,4.76,1.65,5.67,4.02h3.5c-1.17-4.15-4.93-7.05-9.24-7.1c-5.56,0.23-9.88,4.92-9.65,10.47
			c0.22,5.24,4.41,9.43,9.65,9.65c4.42-0.06,8.24-3.08,9.32-7.37h-3.46C39.98,16.04,37.68,17.75,35.05,17.83z"/>
		<path id="패스_1808" class="st0" d="M73.55,17.83c-3.46,0-6.27-3.12-6.27-6.97s2.81-6.97,6.27-6.97
			c2.53,0.07,4.76,1.65,5.67,4.02h3.5c-1.17-4.15-4.93-7.05-9.24-7.1c-5.56,0.23-9.88,4.92-9.65,10.47
			c0.22,5.24,4.41,9.43,9.65,9.65c4.42-0.06,8.24-3.08,9.31-7.37h-3.46C78.48,16.04,76.18,17.75,73.55,17.83z"/>
		<path id="패스_200" class="st1" d="M108.18,4.28c-1.62,0.66-3.34,1.01-5.09,1.02c-0.35,0-0.61-0.01-0.89-0.02l-0.73-0.04
			c-0.96,1.63-1.47,3.49-1.47,5.39c-0.02,1.95,0.5,3.86,1.5,5.53l0.69-0.04c0.33-0.03,0.64-0.04,1.02-0.04
			c1.39-0.01,2.78,0.2,4.11,0.61c0.21,0.05,0.42,0.13,0.61,0.22l0.45,0.18c0.2,0.07,0.4,0.13,0.61,0.18c-3.42-0.89-5.59-4.25-5-7.74
			c0.06-0.36,0.15-0.71,0.27-1.05c0.23-0.67,0.57-1.31,1-1.88c0.43-0.57,0.94-1.06,1.51-1.47c0.14-0.1,0.29-0.2,0.44-0.29
			c0.28-0.17,0.58-0.33,0.86-0.5C108.11,4.32,108.14,4.3,108.18,4.28z"/>
		<path id="패스_201" class="st0" d="M114.59,20.63c5.5-2.14,8.23-8.34,6.09-13.84c-0.21-0.53-0.46-1.04-0.74-1.54
			c-0.02-0.03-0.04-0.06-0.06-0.1l-0.35-0.51c-2-2.89-5.28-4.62-8.79-4.64h-0.06c-1.67,0-3.32,0.39-4.81,1.14l0,0
			c-0.15,0.08-0.3,0.15-0.45,0.24c-0.05,0.03-0.1,0.06-0.16,0.09l-0.2,0.12c-1.27,0.78-2.36,1.82-3.2,3.04l-0.18,0.26
			c-0.07,0.12-0.14,0.23-0.22,0.35l0.71,0.04c0.28,0.02,0.56,0.03,0.91,0.02c1.74-0.01,3.47-0.34,5.08-0.99l0.11-0.05
			c1.25-0.46,2.61-0.55,3.91-0.25l0.12,0.03l0.08,0.02c2.99,0.78,5.09,3.47,5.12,6.56c0.01,3.77-3.03,6.83-6.8,6.85
			c-0.59,0-1.17-0.07-1.74-0.21c-0.2-0.05-0.41-0.11-0.61-0.18l-0.45-0.18c-0.2-0.09-0.4-0.15-0.61-0.2
			c-1.33-0.42-2.72-0.63-4.12-0.62c-0.37,0-0.68,0.01-1.02,0.04l-0.67,0.05c1.22,2.03,3.08,3.61,5.29,4.47l0.04,0.01
			c0.06,0.02,0.12,0.05,0.19,0.07l0.14,0.05c0.1,0.04,0.21,0.07,0.31,0.1c0.08,0.02,0.15,0.05,0.23,0.07s0.15,0.04,0.22,0.06
			c0.1,0.03,0.21,0.05,0.31,0.08l0.13,0.03c0.14,0.03,0.27,0.06,0.41,0.08l0,0c0.62,0.11,1.25,0.17,1.88,0.17h0.07
			c1.31-0.01,2.6-0.25,3.82-0.72L114.59,20.63z"/>
		<path id="패스_202" class="st2" d="M103.09,18.2c-0.61-0.61-1.14-1.3-1.59-2.04c-0.43,0.05-0.86,0.12-1.29,0.22
			c-0.61,0.11-1.22,0.29-1.8,0.51l-0.37,0.16c-0.81,0.33-1.67,0.49-2.55,0.49c-3.77,0-6.82-3.05-6.82-6.82s3.05-6.82,6.82-6.82l0,0
			l0,0c0.86,0,1.72,0.16,2.52,0.48c0.09,0.03,0.44,0.14,0.44,0.14c0.97,0.36,1.98,0.6,3.01,0.73c0.38-0.63,0.82-1.22,1.32-1.76
			c0.99-1.08,2.19-1.95,3.52-2.55c-1.05,0.35-2.14,0.51-3.24,0.46c-1.16,0.02-2.31-0.18-3.4-0.58l-0.22-0.07
			C98.19,0.25,96.85,0,95.49,0h-0.05c-5.92,0.01-10.7,4.82-10.68,10.74c0.01,5.92,4.82,10.7,10.74,10.68h0.06
			c1.34,0,2.66-0.26,3.9-0.75c1.17-0.48,2.42-0.72,3.68-0.73h0.06c1.07,0,2.14,0.17,3.16,0.51
			C105.14,19.91,104.03,19.15,103.09,18.2z"/>
	</g>
</g>
</svg>
