<?xml version="1.0" encoding="utf-8"?>
<!-- Generator: Adobe Illustrator 25.2.1, SVG Export Plug-In . SVG Version: 6.00 Build 0)  -->
<svg version="1.1" id="레이어_1" xmlns="http://www.w3.org/2000/svg" xmlns:xlink="http://www.w3.org/1999/xlink" x="0px"
	 y="0px" viewBox="0 0 124.82 18.61" style="enable-background:new 0 0 124.82 18.61;" xml:space="preserve">
<style type="text/css">
	.st0{fill:#23211D;}
	.st1{fill:#A7BDD3;}
	.st2{fill:#004D8A;}
	.st3{fill:#6C8FB7;}
</style>
<g id="그룹_76" transform="translate(1538.406 34.368)">
	<g id="그룹_75">
		<g id="그룹_73" transform="translate(-1538.406 -34.368)">
			<path id="패스_218" class="st0" d="M13.49,5.96c0,4.51-3.33,5.5-7.55,5.5H3.13v6.76H0V0.33h5.9
				C9.82,0.33,13.49,0.97,13.49,5.96z M3.13,8.89h2.91c2.37,0,4.19-0.34,4.19-2.91c0-2.91-2.15-3.13-4.34-3.13H3.13V8.89z"/>
			<path id="패스_219" class="st0" d="M16.06,18.21V0.33h3.13v17.88H16.06z"/>
			<path id="패스_220" class="st0" d="M30.84,18.54c-5.23,0-8.26-3.72-8.26-9.32c0-5.62,3.23-9.2,8.41-9.2
				c3.77-0.22,7.06,2.52,7.52,6.27H35.5c-0.38-2.22-2.36-3.81-4.61-3.7c-2.84,0-5.08,2.32-5.08,6.64c0,4.34,2.2,6.76,5.06,6.76
				c2.28,0.16,4.31-1.44,4.69-3.7h3.01C37.82,16.27,34.96,18.54,30.84,18.54z"/>
			<path id="패스_221" class="st0" d="M52.42,0.33h3.72l-6.64,7.28l7.25,10.61h-3.7l-5.62-8.34l-2.61,2.86v5.47h-3.13V0.33h3.13
				v8.51L52.42,0.33z"/>
			<path id="패스_222" class="st0" d="M120.47,0.33h3.72l-6.64,7.28l7.25,10.61h-3.7l-5.62-8.34l-2.61,2.86v5.47h-3.13V0.33h3.13
				v8.51L120.47,0.33z"/>
			<path id="패스_223" class="st0" d="M65.15,18.54c-5.23,0-8.26-3.72-8.26-9.32c0-5.62,3.23-9.2,8.41-9.2
				c3.77-0.22,7.06,2.52,7.52,6.27h-3.01c-0.38-2.22-2.36-3.81-4.61-3.7c-2.84,0-5.08,2.32-5.08,6.64c0,4.34,2.2,6.76,5.06,6.76
				c2.28,0.16,4.31-1.44,4.69-3.7h3.01C72.13,16.27,69.27,18.54,65.15,18.54z"/>
			<path id="패스_224" class="st1" d="M90.77,13.96c1.21,0,2.42,0.18,3.57,0.54c0.18,0.04,0.36,0.1,0.53,0.18l0.39,0.15
				c0.17,0.06,0.35,0.11,0.53,0.16c-3.16-0.82-5.05-4.05-4.23-7.21c0.68-2.61,3.04-4.43,5.74-4.42c0.43,0,0.86,0.05,1.28,0.14
				c-0.43-0.1-0.88-0.15-1.32-0.15c-0.71,0-1.41,0.12-2.07,0.37l-0.1,0.04c-1.4,0.56-2.9,0.86-4.41,0.86
				c-0.31,0-0.55-0.01-0.79-0.02l-0.61-0.04c-1.73,2.92-1.72,6.56,0.03,9.47L89.89,14C90.18,13.98,90.45,13.97,90.77,13.96z"/>
			<path id="패스_225" class="st2" d="M105.3,4.58l-0.05-0.08l-0.31-0.44c-1.73-2.51-4.58-4.01-7.62-4.03h-0.05
				c-1.45,0-2.88,0.34-4.17,0.99l0,0c-0.13,0.07-0.26,0.13-0.39,0.21L92.58,1.3c-0.06,0.03-0.12,0.07-0.17,0.1
				c-1.1,0.68-2.05,1.58-2.78,2.64l-0.15,0.22c-0.06,0.1-0.13,0.2-0.19,0.3L89.9,4.6c0.24,0.01,0.49,0.02,0.79,0.02
				c1.51-0.01,3.01-0.3,4.41-0.86l0.1-0.04c1.09-0.4,2.26-0.47,3.39-0.22l0.11,0.03l0.07,0.02c2.59,0.68,4.41,3.01,4.44,5.69
				c0.01,3.27-2.63,5.92-5.9,5.94c-0.51,0-1.01-0.06-1.51-0.18c-0.18-0.04-0.35-0.1-0.53-0.16l-0.39-0.15
				c-0.17-0.08-0.35-0.13-0.53-0.18c-1.16-0.36-2.36-0.54-3.57-0.54c-0.32,0-0.59,0.01-0.88,0.03l-0.58,0.04
				c1.06,1.76,2.67,3.13,4.59,3.88l0.19-0.31l-0.16,0.32c0.05,0.02,0.11,0.04,0.16,0.06l0.12,0.04c0.09,0.03,0.18,0.06,0.27,0.09
				c0.07,0.02,0.13,0.04,0.2,0.06l0.19,0.05c0.09,0.02,0.18,0.05,0.27,0.07l0.11,0.03c0.12,0.03,0.23,0.05,0.35,0.07l0,0
				c0.54,0.1,1.09,0.15,1.63,0.15h0.07c1.14-0.01,2.26-0.22,3.32-0.63l-0.15-0.3l0.18,0.29c4.77-1.85,7.14-7.23,5.28-12
				C105.77,5.45,105.55,5,105.3,4.58L105.3,4.58z"/>
			<path id="패스_226" class="st3" d="M89.31,14.04c-0.7,0.08-1.39,0.23-2.06,0.44c-0.21,0.04-0.41,0.11-0.61,0.19l-0.32,0.14
				c-0.7,0.28-1.45,0.43-2.21,0.42c-3.27-0.01-5.9-2.67-5.89-5.94c0.01-3.27,2.67-5.9,5.94-5.89c0.73,0,1.46,0.14,2.14,0.41
				c0.08,0.03,0.38,0.12,0.38,0.12c0.85,0.3,1.73,0.5,2.63,0.6c0.97-1.64,2.44-2.94,4.18-3.7c-0.91,0.3-1.86,0.44-2.81,0.4
				c-1.01,0.01-2.01-0.16-2.95-0.5l-0.19-0.06c-1.09-0.43-2.26-0.65-3.43-0.65h-0.05c-5.13,0.01-9.28,4.18-9.26,9.31
				c0.01,5.13,4.18,9.28,9.31,9.26h0.05c1.16,0,2.31-0.22,3.38-0.65l0,0c1.01-0.41,2.1-0.63,3.19-0.63h0.05
				c0.93,0,1.86,0.15,2.74,0.45v-0.01C91.77,16.98,90.3,15.68,89.31,14.04L89.31,14.04z"/>
		</g>
	</g>
</g>
</svg>
