<?xml version="1.0" encoding="utf-8"?>
<!-- Generator: Adobe Illustrator 25.2.1, SVG Export Plug-In . SVG Version: 6.00 Build 0)  -->
<svg version="1.1" xmlns="http://www.w3.org/2000/svg" xmlns:xlink="http://www.w3.org/1999/xlink" x="0px" y="0px"
	 viewBox="0 0 89.3 13.25" style="enable-background:new 0 0 89.3 13.25;" xml:space="preserve">
<style type="text/css">
	.st0{display:none;}
	.st1{display:inline;stroke:#FFFFFF;stroke-miterlimit:10;}
	.st2{fill:#FFFFFF;}
	.st3{opacity:0.4;fill:#FFFFFF;enable-background:new    ;}
	.st4{opacity:0.65;fill:#FFFFFF;enable-background:new    ;}
</style>
<g id="레이어_2" class="st0">
	<rect x="-173.98" y="-195.24" class="st1" width="684" height="390"/>
</g>
<g id="레이어_1">
	<g id="그룹_162" transform="translate(-531.571 -476.479)">
		<path id="패스_238" class="st2" d="M541.18,480.72c0,3.21-2.37,3.92-5.38,3.92h-2v4.81h-2.23v-12.74h4.2
			C538.56,476.72,541.18,477.17,541.18,480.72z M533.8,482.81h2.07c1.69,0,2.99-0.25,2.99-2.07c0-2.07-1.53-2.23-3.09-2.23h-1.97
			L533.8,482.81z"/>
		<path id="패스_239" class="st2" d="M543,489.45v-12.74h2.23v12.74H543z"/>
		<path id="패스_240" class="st2" d="M553.53,489.68c-3.72,0-5.89-2.65-5.89-6.64c0-4.01,2.3-6.55,5.99-6.55
			c2.68-0.16,5.03,1.8,5.36,4.46h-2.14c-0.27-1.58-1.68-2.72-3.28-2.64c-2.02,0-3.62,1.65-3.62,4.73c0,3.09,1.56,4.81,3.6,4.81
			c1.63,0.11,3.07-1.03,3.34-2.64h2.14C558.65,487.92,556.25,489.87,553.53,489.68z"/>
		<path id="패스_241" class="st2" d="M568.9,476.72h2.65l-4.73,5.18l5.16,7.55h-2.64l-4.01-5.94l-1.86,2.04v3.9h-2.23v-12.74h2.23
			v6.06L568.9,476.72z"/>
		<path id="패스_242" class="st2" d="M617.78,476.72h2.65l-4.73,5.18l5.17,7.55h-2.64l-4.01-5.94l-1.86,2.04v3.9h-2.23v-12.74
			h2.23v6.06L617.78,476.72z"/>
		<path id="패스_243" class="st2" d="M577.97,489.68c-3.72,0-5.89-2.65-5.89-6.64c0-4.01,2.3-6.55,5.99-6.55
			c2.68-0.16,5.03,1.8,5.36,4.46h-2.14c-0.27-1.58-1.68-2.72-3.29-2.64c-2.02,0-3.62,1.65-3.62,4.73c0,3.09,1.56,4.81,3.6,4.81
			c1.63,0.11,3.07-1.03,3.34-2.64h2.14C583.09,487.92,580.69,489.87,577.97,489.68z"/>
		<path id="패스_244" class="st2" d="M599.42,489.43l-0.14-0.04L599.42,489.43z"/>
		<path id="패스_245" class="st2" d="M606.98,479.74l-0.04-0.06L606.98,479.74L606.98,479.74z"/>
		<path id="패스_246" class="st2" d="M602.27,479l0.05,0.01L602.27,479z"/>
		<path id="패스_247" class="st2" d="M599.08,489.33l-0.09-0.03L599.08,489.33z"/>
		<path id="패스_248" class="st2" d="M597.79,477.48c-0.84,0.51-1.56,1.21-2.09,2.04l0.11-0.16
			C596.33,478.6,597.01,477.96,597.79,477.48z"/>
		<path id="패스_249" class="st2" d="M598.86,489.24l0.02,0.01l0.11-0.23L598.86,489.24z"/>
		<path id="패스_250" class="st2" d="M601.24,489.69c-0.39,0-0.78-0.03-1.16-0.1c0.39,0.07,0.78,0.11,1.17,0.11h0.05
			c0.78,0,1.55-0.14,2.29-0.41l0.08-0.03l-0.01-0.02c-0.75,0.29-1.55,0.44-2.36,0.45L601.24,489.69z"/>
		<path id="패스_251" class="st2" d="M605.96,487.73c-0.65,0.66-1.43,1.17-2.29,1.51l0.01,0.02c0.09-0.04,0.18-0.07,0.27-0.1
			c1.12-0.5,2.08-1.29,2.78-2.3l0.25-0.37h-0.04C606.66,486.94,606.34,487.36,605.96,487.73z"/>
		<path id="패스_252" class="st2" d="M600.08,489.59c-0.08-0.02-0.17-0.03-0.25-0.05C599.91,489.56,599.99,489.57,600.08,489.59z"
			/>
		<path id="패스_253" class="st3" d="M596.63,486.43c0.86,0,1.72,0.13,2.55,0.39c0.13,0.03,0.26,0.07,0.38,0.13l0.28,0.11
			c0.12,0.04,0.25,0.08,0.37,0.11c-2.25-0.58-3.6-2.88-3.02-5.13c0.48-1.87,2.17-3.17,4.1-3.15c0.31,0,0.61,0.03,0.92,0.1
			c-0.31-0.07-0.62-0.11-0.94-0.11c-0.5,0-1,0.09-1.47,0.26l-0.07,0.03c-1,0.4-2.06,0.61-3.14,0.61c-0.22,0-0.39,0-0.56-0.02
			l-0.44-0.03c-1.23,2.08-1.22,4.67,0.02,6.75l0.41-0.03C596.21,486.43,596.4,486.43,596.63,486.43z"/>
		<path id="패스_254" class="st2" d="M599.75,489.52c-0.06-0.02-0.13-0.03-0.19-0.05C599.62,489.49,599.68,489.51,599.75,489.52z"
			/>
		<path id="패스_255" class="st2" d="M599.55,489.47l-0.14-0.04L599.55,489.47z"/>
		<path id="패스_256" class="st2" d="M598.88,489.25l0.08,0.03l0.04,0.01L598.88,489.25L598.88,489.25z"/>
		<path id="패스_257" class="st2" d="M600.07,489.59L600.07,489.59z"/>
		<path id="패스_258" class="st2" d="M599.27,489.39c-0.06-0.02-0.13-0.04-0.19-0.07C599.15,489.35,599.21,489.37,599.27,489.39z"
			/>
		<path id="패스_259" class="st2" d="M595.55,479.73h0.02c0.04-0.07,0.09-0.14,0.13-0.22L595.55,479.73z"/>
		<path id="패스_260" class="st2" d="M599.82,489.54l-0.08-0.02L599.82,489.54z"/>
		<path id="패스_261" class="st2" d="M595.59,486.48h-0.03l0.25,0.37c0.7,1.01,1.66,1.8,2.78,2.3c0.09,0.03,0.17,0.06,0.27,0.1
			l0,0C597.49,488.71,596.34,487.74,595.59,486.48L595.59,486.48z"/>
		<path id="패스_262" class="st2" d="M601.29,476.5c2.17,0.01,4.2,1.08,5.43,2.87l0.22,0.32c-1.19-1.99-3.34-3.21-5.66-3.19h-0.04
			c-1.03,0.01-2.04,0.25-2.95,0.71c0.92-0.46,1.94-0.7,2.97-0.7L601.29,476.5z"/>
		<path id="패스_263" class="st2" d="M603.65,489.25l0.02-0.01l-0.13-0.2L603.65,489.25z"/>
		<path id="패스_264" class="st2" d="M602.2,478.98l0.08,0.02L602.2,478.98z"/>
		<path id="패스_265" class="st2" d="M597.79,477.48l0.12-0.07L597.79,477.48z"/>
		<path id="패스_266" class="st2" d="M606.97,479.74l-0.03-0.06l-0.22-0.32c-1.23-1.79-3.26-2.86-5.43-2.87h-0.04
			c-1.03,0-2.05,0.24-2.97,0.7l0,0c-0.09,0.05-0.19,0.1-0.28,0.15l-0.1,0.06l-0.12,0.07c-0.78,0.48-1.46,1.12-1.98,1.88l-0.11,0.16
			c-0.05,0.07-0.09,0.14-0.13,0.22l0.44,0.03c0.17,0.01,0.35,0.02,0.56,0.02c1.08,0,2.14-0.21,3.14-0.61l0.07-0.03
			c0.47-0.17,0.97-0.26,1.47-0.26c0.32,0,0.63,0.04,0.94,0.11l0.08,0.02l0.05,0.01c1.85,0.48,3.14,2.14,3.16,4.05
			c0.01,2.33-1.87,4.22-4.2,4.23c-0.36,0-0.72-0.04-1.07-0.13c-0.13-0.03-0.25-0.07-0.37-0.11l-0.28-0.11
			c-0.12-0.05-0.25-0.1-0.38-0.13c-0.82-0.26-1.68-0.39-2.55-0.39c-0.23,0-0.42,0.01-0.63,0.02l-0.41,0.03
			c0.75,1.26,1.9,2.23,3.27,2.76l0.14-0.22l-0.11,0.23l0.12,0.05l0.09,0.03c0.06,0.02,0.13,0.04,0.19,0.07l0.14,0.04l0.14,0.04
			c0.07,0.02,0.13,0.03,0.19,0.05l0.08,0.02c0.08,0.02,0.17,0.04,0.25,0.05l0,0c0.38,0.07,0.77,0.1,1.16,0.1h0.05
			c0.81,0,1.61-0.15,2.36-0.45l-0.11-0.21l0.13,0.2c3.4-1.32,5.08-5.14,3.76-8.54c-0.13-0.33-0.28-0.65-0.46-0.95L606.97,479.74z"/>
		<path id="패스_267" class="st4" d="M595.59,486.48c-0.5,0.06-0.99,0.16-1.47,0.31c-0.15,0.03-0.29,0.08-0.43,0.14l-0.23,0.1
			c-0.5,0.2-1.03,0.3-1.57,0.3c-2.33-0.01-4.21-1.9-4.2-4.22c0.01-2.33,1.9-4.21,4.22-4.2c0.53,0,1.05,0.1,1.54,0.29
			c0.06,0.02,0.27,0.09,0.27,0.09c0.61,0.21,1.23,0.36,1.87,0.43c0.69-1.17,1.73-2.09,2.98-2.64c-0.64,0.21-1.32,0.31-2,0.29
			c-0.72,0.01-1.43-0.11-2.1-0.36l-0.14-0.04c-0.78-0.31-1.61-0.46-2.44-0.46h-0.03c-3.65,0.01-6.61,2.98-6.6,6.63
			c0.01,3.65,2.98,6.61,6.63,6.6h0.04c0.83,0,1.64-0.16,2.41-0.46l0,0c0.72-0.29,1.49-0.45,2.27-0.45h0.04
			c0.66,0,1.32,0.11,1.95,0.32v-0.01C597.34,488.58,596.3,487.65,595.59,486.48L595.59,486.48z"/>
	</g>
</g>
</svg>
