<?xml version="1.0" encoding="utf-8"?>
<!-- Generator: Adobe Illustrator 25.2.1, SVG Export Plug-In . SVG Version: 6.00 Build 0)  -->
<svg version="1.1" id="레이어_1" xmlns="http://www.w3.org/2000/svg" xmlns:xlink="http://www.w3.org/1999/xlink" x="0px"
	 y="0px" viewBox="0 0 36.17 21.14" style="enable-background:new 0 0 36.17 21.14;" xml:space="preserve">
<style type="text/css">
	.st0{fill:#A7BDD3;}
	.st1{fill:#004D8A;}
	.st2{fill:#6C8FB7;}
</style>
<g id="그룹_78" transform="translate(-30.799 82.746)">
	<path id="패스_224" class="st0" d="M48.98-66.88c1.38,0,2.75,0.21,4.07,0.62c0.21,0.05,0.41,0.11,0.6,0.2l0.44,0.17
		c0.2,0.07,0.4,0.13,0.6,0.18c-3.59-0.94-5.75-4.61-4.81-8.2c0.77-2.97,3.46-5.04,6.53-5.03c0.49,0,0.98,0.05,1.46,0.16
		c-0.49-0.11-1-0.17-1.51-0.17c-0.8,0-1.6,0.14-2.35,0.42l-0.11,0.05c-1.59,0.64-3.3,0.98-5.01,0.98c-0.35,0-0.62-0.01-0.9-0.02
		l-0.7-0.04c-1.97,3.33-1.95,7.46,0.03,10.78l0.66-0.05C48.3-66.87,48.61-66.88,48.98-66.88z"/>
	<path id="패스_225" class="st1" d="M65.51-77.56l-0.06-0.09l-0.35-0.5c-1.97-2.85-5.21-4.56-8.67-4.58h-0.06
		c-1.65,0-3.27,0.39-4.75,1.12l0,0c-0.15,0.07-0.3,0.15-0.44,0.23l-0.15,0.09c-0.07,0.04-0.13,0.08-0.2,0.12
		c-1.25,0.77-2.33,1.79-3.16,3l-0.17,0.25c-0.07,0.11-0.14,0.23-0.21,0.34l0.7,0.04c0.28,0.02,0.55,0.03,0.9,0.02
		c1.72-0.01,3.42-0.34,5.01-0.98l0.11-0.05c0.75-0.28,1.55-0.42,2.35-0.42c0.51,0,1.01,0.06,1.51,0.17L58-78.76l0.07,0.02
		c2.95,0.77,5.02,3.42,5.05,6.47c0.01,3.72-3,6.74-6.71,6.76c-0.58,0-1.15-0.07-1.72-0.21c-0.2-0.05-0.4-0.11-0.6-0.18l-0.44-0.17
		c-0.19-0.09-0.39-0.15-0.6-0.2c-1.32-0.41-2.69-0.62-4.07-0.62c-0.37,0-0.67,0.01-1,0.04l-0.66,0.05c1.21,2.01,3.04,3.56,5.22,4.41
		l0.21-0.35l-0.18,0.36c0.06,0.02,0.12,0.05,0.19,0.07l0.14,0.05c0.1,0.04,0.2,0.07,0.31,0.1c0.08,0.02,0.15,0.05,0.23,0.07
		s0.15,0.04,0.22,0.06c0.1,0.03,0.2,0.05,0.31,0.08l0.13,0.03c0.13,0.03,0.27,0.06,0.4,0.08l0,0c0.61,0.11,1.23,0.17,1.86,0.16h0.08
		c1.29-0.01,2.57-0.25,3.78-0.71l-0.17-0.34l0.2,0.33c5.43-2.11,8.12-8.23,6.01-13.66C66.04-76.58,65.8-77.08,65.51-77.56
		L65.51-77.56z"/>
	<path id="패스_226" class="st2" d="M47.31-66.8c-0.8,0.1-1.58,0.26-2.35,0.5c-0.24,0.05-0.47,0.12-0.69,0.22l-0.36,0.16
		c-0.8,0.32-1.65,0.48-2.51,0.48c-3.72-0.01-6.72-3.03-6.72-6.74c0.01-3.72,3.03-6.72,6.74-6.72c0.84,0,1.68,0.16,2.46,0.47
		c0.09,0.03,0.43,0.14,0.43,0.14c0.97,0.34,1.97,0.57,2.99,0.68c1.11-1.87,2.77-3.34,4.76-4.21c-1.03,0.34-2.11,0.5-3.2,0.46
		c-1.14,0.02-2.28-0.18-3.36-0.57l-0.22-0.06c-1.24-0.49-2.56-0.74-3.9-0.74h-0.05c-5.84,0.01-10.56,4.76-10.54,10.6
		c0.01,5.84,4.76,10.56,10.6,10.54h0.06c1.32,0,2.62-0.26,3.85-0.74l0,0c1.15-0.47,2.39-0.71,3.63-0.72h0.06
		c1.06,0,2.11,0.17,3.12,0.51v-0.01C50.11-63.45,48.44-64.93,47.31-66.8L47.31-66.8z"/>
</g>
</svg>
