<?xml version="1.0" encoding="utf-8"?>
<!-- Generator: Adobe Illustrator 25.2.1, SVG Export Plug-In . SVG Version: 6.00 Build 0)  -->
<svg version="1.1" id="레이어_1" xmlns="http://www.w3.org/2000/svg" xmlns:xlink="http://www.w3.org/1999/xlink" x="0px"
	 y="0px" viewBox="0 0 36.28 21.21" style="enable-background:new 0 0 36.28 21.21;" xml:space="preserve">
<style type="text/css">
	.st0{opacity:0.4;fill:#FFFFFF;enable-background:new    ;}
	.st1{fill:#FFFFFF;}
	.st2{opacity:0.65;fill:#FFFFFF;enable-background:new    ;}
</style>
<g id="그룹_77" transform="translate(1463.201 77.746)">
	<path id="패스_215" class="st0" d="M-1444.95-61.83c1.38,0,2.76,0.21,4.08,0.62c0.21,0.05,0.41,0.11,0.61,0.2l0.44,0.18
		c0.2,0.07,0.4,0.13,0.6,0.18c-3.61-0.94-5.77-4.62-4.83-8.23c0.78-2.98,3.47-5.06,6.55-5.05c0.49,0,0.98,0.05,1.47,0.16
		c-1.29-0.3-2.63-0.21-3.87,0.25l-0.11,0.05c-1.6,0.64-3.31,0.98-5.03,0.98c-0.35,0-0.63-0.01-0.9-0.02l-0.7-0.04
		c-1.97,3.34-1.96,7.49,0.03,10.81l0.66-0.05C-1445.63-61.82-1445.32-61.83-1444.95-61.83z"/>
	<path id="패스_216" class="st1" d="M-1428.37-72.54l-0.06-0.09l-0.35-0.5c-1.97-2.86-5.22-4.58-8.7-4.6h-0.06
		c-1.65,0-3.28,0.39-4.76,1.13l0,0c-0.15,0.08-0.3,0.15-0.44,0.23l-0.15,0.09c-0.07,0.04-0.13,0.08-0.2,0.12
		c-1.26,0.77-2.34,1.8-3.17,3.01l-0.18,0.25c-0.07,0.11-0.14,0.23-0.21,0.35l0.7,0.04c0.28,0.02,0.56,0.03,0.9,0.02
		c1.72-0.01,3.43-0.34,5.03-0.98l0.11-0.05c1.24-0.46,2.59-0.54,3.87-0.25l0.12,0.03l0.07,0.02c2.96,0.77,5.04,3.43,5.07,6.49
		c0.01,3.73-3,6.76-6.73,6.78c-0.58,0-1.16-0.07-1.72-0.21c-0.2-0.05-0.4-0.11-0.6-0.18l-0.44-0.18c-0.2-0.09-0.4-0.15-0.61-0.2
		c-1.32-0.41-2.7-0.62-4.08-0.62c-0.37,0-0.68,0.01-1.01,0.04l-0.66,0.05c1.21,2.01,3.05,3.57,5.23,4.43l0.22-0.35l-0.18,0.36
		c0.06,0.02,0.12,0.05,0.19,0.07l0.14,0.05c0.1,0.04,0.21,0.07,0.31,0.1c0.08,0.02,0.15,0.05,0.23,0.07l0.22,0.06
		c0.1,0.03,0.2,0.05,0.31,0.08l0.13,0.03c0.13,0.03,0.27,0.06,0.4,0.08l0,0c0.62,0.11,1.24,0.17,1.86,0.17h0.08
		c1.3-0.01,2.58-0.25,3.79-0.72l-0.17-0.34l0.2,0.33c5.45-2.12,8.15-8.25,6.03-13.7C-1427.85-71.55-1428.09-72.06-1428.37-72.54
		L-1428.37-72.54z"/>
	<path id="패스_217" class="st2" d="M-1446.63-61.75c-0.8,0.1-1.59,0.26-2.36,0.5c-0.24,0.05-0.47,0.12-0.7,0.22l-0.37,0.16
		c-0.8,0.32-1.66,0.49-2.52,0.48c-3.73-0.01-6.75-3.04-6.74-6.77c0.01-3.73,3.04-6.75,6.77-6.74c0.85,0,1.68,0.16,2.47,0.47
		c0.09,0.03,0.43,0.14,0.43,0.14c0.97,0.34,1.98,0.57,3,0.68c1.11-1.87,2.78-3.35,4.78-4.23c-1.03,0.34-2.12,0.5-3.21,0.46
		c-1.15,0.02-2.29-0.18-3.37-0.57l-0.22-0.06c-1.25-0.49-2.57-0.74-3.92-0.74h-0.05c-5.86,0.01-10.59,4.77-10.58,10.63
		s4.77,10.59,10.63,10.58l0,0h0.06c1.32,0,2.63-0.26,3.86-0.74l0,0c1.16-0.47,2.39-0.72,3.64-0.72h0.06c1.06,0,2.12,0.17,3.13,0.51
		v-0.01c-2-0.89-3.68-2.37-4.81-4.25L-1446.63-61.75z"/>
</g>
</svg>
