<?xml version="1.0" encoding="utf-8"?>
<!-- Generator: Adobe Illustrator 25.2.1, SVG Export Plug-In . SVG Version: 6.00 Build 0)  -->
<svg version="1.1" xmlns="http://www.w3.org/2000/svg" xmlns:xlink="http://www.w3.org/1999/xlink" x="0px" y="0px"
	 viewBox="0 0 87.83 14.1" style="enable-background:new 0 0 87.83 14.1;" xml:space="preserve">
<style type="text/css">
	.st0{display:none;}
	.st1{display:inline;stroke:#FFFFFF;stroke-miterlimit:10;}
	.st2{fill:#FFFFFF;}
	.st3{opacity:0.89;fill:#FFFFFF;enable-background:new    ;}
	.st4{clip-path:url(#SVGID_2_);}
	.st5{fill:#FFFFFF;stroke:#231815;stroke-width:0.25;stroke-miterlimit:10;}
	.st6{opacity:0.55;}
</style>
<g id="레이어_2" class="st0">
	<rect x="-153.45" y="-196.83" class="st1" width="684" height="390"/>
</g>
<g id="레이어_1">
	<g id="그룹_4" transform="translate(-61.443 -59.536)">
		<path id="패스_17" class="st2" d="M70.54,64.1c0,3.04-2.25,3.71-5.09,3.71h-1.9v4.56h-2.11V60.31h3.98
			C68.06,60.31,70.54,60.74,70.54,64.1z M63.56,66.08h1.96c1.6,0,2.83-0.23,2.83-1.96c0-1.96-1.45-2.11-2.93-2.11h-1.86V66.08z"/>
		<path id="패스_18" class="st2" d="M72.58,72.36V60.31h2.11v12.06H72.58z"/>
		<path id="패스_19" class="st2" d="M82.85,72.58c-3.53,0-5.57-2.51-5.57-6.29c0-3.79,2.18-6.21,5.67-6.21
			c2.54-0.15,4.76,1.7,5.07,4.23H86c-0.25-1.5-1.59-2.58-3.11-2.5c-1.91,0-3.43,1.56-3.43,4.47c0,2.93,1.48,4.56,3.41,4.56
			c1.54,0.11,2.91-0.98,3.16-2.5h2.03C87.71,70.91,85.43,72.76,82.85,72.58z"/>
		<path id="패스_20" class="st2" d="M97.72,60.31h2.51l-4.48,4.91l4.89,7.15h-2.5l-3.79-5.62l-1.76,1.93v3.69h-2.11V60.31h2.11
			v5.74L97.72,60.31z"/>
		<path id="패스_21" class="st2" d="M106.61,72.58c-3.53,0-5.57-2.51-5.57-6.29c0-3.79,2.18-6.21,5.67-6.21
			c2.54-0.15,4.76,1.7,5.07,4.23h-2.03c-0.25-1.5-1.59-2.58-3.11-2.5c-1.91,0-3.43,1.56-3.43,4.47c0,2.93,1.48,4.56,3.41,4.56
			c1.54,0.11,2.91-0.98,3.16-2.5h2.03C111.46,70.91,109.19,72.76,106.61,72.58z"/>
		<path id="패스_22" class="st2" d="M146.34,60.31h2.51l-4.48,4.91l4.89,7.15h-2.5l-3.79-5.62l-1.76,1.93v3.69h-2.11V60.31h2.11
			v5.74L146.34,60.31z"/>
		<path id="패스_23" class="st3" d="M129.87,59.58c-0.87,0-1.74,0.17-2.55,0.49c-1.58,0.63-3.34,0.67-4.95,0.09l-0.17-0.05
			c-3.58-1.41-7.63,0.35-9.05,3.93c-1.41,3.58,0.35,7.63,3.93,9.05c1.76,0.69,3.73,0.64,5.45-0.14l-0.33,0.14
			c1.67-0.68,3.55-0.69,5.22-0.02l0,0c3.6,1.38,7.63-0.43,9.01-4.03c1.38-3.6-0.43-7.63-4.03-9.01
			C131.61,59.73,130.74,59.58,129.87,59.58L129.87,59.58z"/>
		<g id="그룹_19" transform="translate(112.479 59.536)">
			<path id="패스_24" class="st2" d="M17.35,0c-0.88,0.01-1.75,0.17-2.56,0.5c-1.59,0.64-3.36,0.67-4.98,0.1L9.63,0.55
				C6.02-0.88,1.94,0.89,0.51,4.49s0.34,7.69,3.95,9.11c1.78,0.7,3.76,0.65,5.5-0.14l-0.33,0.14c1.69-0.68,3.57-0.69,5.26-0.02l0,0
				c3.62,1.38,7.68-0.43,9.07-4.06c1.38-3.62-0.43-7.68-4.06-9.07C19.08,0.15,18.22,0,17.35,0L17.35,0z"/>
			<g>
				<defs>
					<path id="SVGID_1_" d="M17.35,0c-0.88,0.01-1.75,0.17-2.56,0.5c-1.59,0.64-3.36,0.67-4.98,0.1L9.63,0.55
						C6.02-0.88,1.94,0.89,0.51,4.49s0.34,7.69,3.95,9.11c1.78,0.7,3.76,0.65,5.5-0.14l-0.33,0.14c1.69-0.68,3.57-0.69,5.26-0.02
						l0,0c3.62,1.38,7.68-0.43,9.07-4.06c1.38-3.62-0.43-7.68-4.06-9.07C19.08,0.15,18.22,0,17.35,0L17.35,0z"/>
				</defs>
				<clipPath id="SVGID_2_">
					<use xlink:href="#SVGID_1_"  style="overflow:visible;"/>
				</clipPath>
				<g id="그룹_18" class="st4">
					<path id="패스_25" class="st5" d="M14.89,13.58"/>
					<path id="패스_26" class="st5" d="M9.63,13.6"/>
					<g id="그룹_17" transform="translate(6.309 -3.08)" class="st6">
						
							<image style="overflow:visible;opacity:0.69;enable-background:new    ;" width="404" height="403" id="사각형_53" xlink:href="EC0EFDEA.png"  transform="matrix(0.0501 0 0 0.0501 4.401425e-04 0)">
						</image>
						<g id="그룹_16" transform="translate(4.294 3.112)">
							
								<ellipse id="타원_3" transform="matrix(1 -5.270869e-03 5.270869e-03 1 -0.0367 0.037)" class="st2" cx="7" cy="6.99" rx="6.97" ry="6.95"/>
						</g>
					</g>
				</g>
			</g>
		</g>
	</g>
</g>
</svg>
