<?xml version="1.0" encoding="utf-8"?>
<!-- Generator: Adobe Illustrator 25.2.1, SVG Export Plug-In . SVG Version: 6.00 Build 0)  -->
<svg version="1.1" id="레이어_1" xmlns="http://www.w3.org/2000/svg" xmlns:xlink="http://www.w3.org/1999/xlink" x="0px"
	 y="0px" viewBox="0 0 140.01 21.42" style="enable-background:new 0 0 140.01 21.42;" xml:space="preserve">
<style type="text/css">
	.st0{fill:#23211D;}
	.st1{fill:#A7BDD3;}
	.st2{fill:#004D8A;}
	.st3{fill:#6C8FB7;}
</style>
<g id="그룹_1445" transform="translate(-170.056 -494.588)">
	<path id="패스_1794" class="st0" d="M185.52,501.76c0,4.79-3.75,5.84-8.5,5.84h-2.41c-0.4-0.01-0.73,0.3-0.75,0.7v6.47h-3.8
		V496.5c0.01-0.4,0.35-0.71,0.75-0.7h6.16C181.38,495.79,185.52,496.48,185.52,501.76z M173.86,504.18c0.01,0.4,0.35,0.71,0.75,0.7
		h2.53c2.66,0,4.72-0.37,4.72-3.09c0-3.09-2.41-3.33-4.89-3.33h-2.36c-0.4-0.01-0.73,0.3-0.75,0.7L173.86,504.18z"/>
	<path id="패스_1795" class="st0" d="M188.6,514.78v-18.98h3.8v18.98H188.6z"/>
	<path id="패스_1796" class="st0" d="M229.47,495.79h4.16l-7.55,7.84c-0.13,0.13-0.14,0.34-0.03,0.48l7.82,10.66h-4.13l-5.92-8.14
		c-0.12-0.17-0.36-0.21-0.53-0.09c-0.02,0.01-0.04,0.03-0.05,0.05l-2.05,2.17c-0.12,0.13-0.19,0.3-0.19,0.47v5.54h-3.75v-18.98h3.74
		v8.57c0.01,0.1,0.09,0.18,0.2,0.18c0.05,0,0.09-0.02,0.13-0.06L229.47,495.79z"/>
	<path id="패스_1797" class="st0" d="M305.67,495.8h4.16l-7.55,7.84c-0.13,0.13-0.14,0.34-0.03,0.48l7.82,10.66h-4.13l-5.92-8.14
		c-0.12-0.17-0.36-0.21-0.53-0.09c-0.02,0.01-0.04,0.03-0.05,0.05l-2.06,2.17c-0.12,0.13-0.19,0.3-0.19,0.48v5.54h-3.75V495.8h3.75
		v8.57c0.01,0.1,0.09,0.18,0.2,0.18c0.05,0,0.09-0.02,0.13-0.06L305.67,495.8z"/>
	<path id="패스_1798" class="st0" d="M205.1,512.27c-3.46,0-6.27-3.12-6.27-6.97s2.81-6.97,6.27-6.97
		c2.53,0.07,4.77,1.65,5.67,4.02h3.5c-1.17-4.15-4.93-7.05-9.24-7.1c-5.56,0.22-9.88,4.91-9.66,10.46c0.21,5.25,4.41,9.45,9.66,9.66
		c4.42-0.06,8.24-3.08,9.32-7.37h-3.46C210.04,510.49,207.73,512.2,205.1,512.27z"/>
	<path id="패스_1799" class="st0" d="M243.6,512.27c-3.46,0-6.27-3.12-6.27-6.97s2.81-6.97,6.27-6.97
		c2.53,0.07,4.77,1.65,5.67,4.02h3.5c-1.17-4.15-4.93-7.05-9.24-7.1c-5.56,0.22-9.88,4.91-9.66,10.46c0.21,5.25,4.41,9.45,9.66,9.66
		c4.42-0.06,8.24-3.08,9.32-7.37h-3.46C248.54,510.49,246.23,512.2,243.6,512.27z"/>
	<g id="그룹_1444" transform="translate(254.75 494.588)">
		<path id="패스_1800" class="st1" d="M23.42,4.28c-1.62,0.66-3.34,1.01-5.09,1.02c-0.35,0-0.61-0.01-0.89-0.02l-0.73-0.04
			c-0.96,1.64-1.47,3.49-1.47,5.39c-0.02,1.95,0.5,3.86,1.5,5.53l0.69-0.04c0.33-0.03,0.64-0.03,1.02-0.04
			c1.39-0.01,2.78,0.2,4.11,0.61c0.21,0.05,0.42,0.12,0.61,0.22l0.45,0.18c0.2,0.07,0.4,0.13,0.61,0.18c-3.42-0.89-5.59-4.25-5-7.74
			c0.12-0.71,0.36-1.4,0.7-2.04c0.17-0.31,0.36-0.62,0.57-0.9c0.43-0.57,0.94-1.06,1.51-1.47c0.14-0.1,0.29-0.2,0.44-0.29
			c0.28-0.17,0.58-0.33,0.86-0.5C23.34,4.32,23.38,4.3,23.42,4.28z"/>
		<path id="패스_1801" class="st2" d="M29.83,20.63c5.5-2.14,8.23-8.34,6.09-13.84c-0.21-0.53-0.46-1.04-0.74-1.54l-0.06-0.1
			l-0.35-0.51c-2-2.89-5.28-4.62-8.79-4.64h-0.06c-1.67,0-3.32,0.39-4.81,1.14l0,0c-0.15,0.08-0.3,0.15-0.45,0.24l-0.15,0.09
			c-0.07,0.04-0.13,0.08-0.2,0.12c-1.27,0.78-2.36,1.82-3.21,3.04l-0.18,0.26C16.85,5,16.78,5.12,16.71,5.24l0.71,0.04
			c0.28,0.02,0.56,0.03,0.91,0.02c1.74-0.01,3.47-0.35,5.08-1l0.11-0.05c1.25-0.46,2.61-0.55,3.91-0.25l0.12,0.03l0.08,0.02
			c2.99,0.78,5.09,3.47,5.12,6.56c0.01,3.77-3.03,6.83-6.8,6.85c-0.59,0-1.17-0.07-1.74-0.21c-0.2-0.05-0.41-0.11-0.61-0.18
			l-0.45-0.18c-0.2-0.09-0.4-0.15-0.61-0.2c-1.33-0.42-2.72-0.63-4.12-0.62c-0.37,0-0.68,0.01-1.02,0.04l-0.67,0.05
			c1.22,2.03,3.08,3.6,5.29,4.47l0.04,0.01c0.06,0.02,0.12,0.05,0.19,0.07l0.14,0.05c0.1,0.04,0.21,0.07,0.31,0.1
			c0.08,0.02,0.15,0.05,0.23,0.07s0.15,0.04,0.22,0.06c0.1,0.03,0.21,0.05,0.31,0.08l0.13,0.03c0.14,0.03,0.27,0.06,0.41,0.08l0,0
			c0.62,0.11,1.25,0.17,1.88,0.17h0.08c1.31-0.01,2.61-0.25,3.83-0.72L29.83,20.63z"/>
		<path id="패스_1802" class="st3" d="M16.74,16.16c-0.43,0.05-0.86,0.13-1.29,0.22c-0.61,0.12-1.22,0.29-1.8,0.51l-0.37,0.16
			c-0.81,0.33-1.67,0.49-2.55,0.49c-3.77-0.01-6.81-3.07-6.81-6.84S7,3.88,10.77,3.89c0.85,0,1.7,0.16,2.49,0.48
			c0.09,0.03,0.44,0.14,0.44,0.14c0.97,0.36,1.98,0.6,3.01,0.73c0.38-0.63,0.83-1.22,1.32-1.76c0.99-1.08,2.19-1.95,3.52-2.55
			c-1.05,0.35-2.14,0.51-3.24,0.46c-1.16,0.02-2.31-0.18-3.4-0.58l-0.22-0.07C13.43,0.25,12.09,0,10.73,0h-0.05
			C4.77,0.01-0.02,4.82,0,10.74c0.01,5.92,4.82,10.7,10.74,10.68h0.06c1.34,0,2.66-0.26,3.9-0.75c1.17-0.48,2.42-0.72,3.68-0.73
			h0.06c1.07,0,2.14,0.17,3.16,0.51C19.57,19.55,17.87,18.05,16.74,16.16L16.74,16.16z"/>
	</g>
</g>
</svg>
